# xmcd CD database file
#
# Track frame offsets:
#	150
#	15252
#	30442
#	44717
#	59845
#	72645
#	89512
#	106555
#	121180
#	135615
#	150825
#	164647
#	177982
#	196342
#	214332
#
# Disc length: 3050 seconds
#
# Revision: 3
# Processed by: cddbd v1.5PL3 Copyright (c) Steve Scherf et al.
# Submitted via: CDex 1.51
#
DISCID=cf0be80f
DTITLE=John Williamson - Pipe Dream
DYEAR=1997
DGENRE=Country
TTITLE0=On The Improve
TTITLE1=Wedding Ring
TTITLE2=The Blues Sometimes
TTITLE3=Coolabah Blue
TTITLE4=Pipe Dream
TTITLE5=Vegie Bill
TTITLE6=Prettiest Girl In The Kimberley
TTITLE7=The Girl I Met
TTITLE8=Missin' The Kisses
TTITLE9=Power Over Me
TTITLE10=Woman On The Land
TTITLE11=Bush Telegraph
TTITLE12=Rosewood Hill
TTITLE13=Old Pancho
TTITLE14=Sir Don
EXTD=YEAR: 1997
EXTT0=
EXTT1=
EXTT2=
EXTT3=
EXTT4=
EXTT5=
EXTT6=
EXTT7=
EXTT8=
EXTT9=
EXTT10=
EXTT11=
EXTT12=
EXTT13=
EXTT14=
PLAYORDER=
